<svg width="260" height="72" viewBox="0 0 260 72" fill="none" xmlns="http://www.w3.org/2000/svg"><g transform="translate(0,4)"><circle cx="32" cy="32" r="28" stroke="#EAF6FF" stroke-width="1.3" opacity=".9"/><circle cx="32" cy="32" r="20" stroke="#00C2FF" stroke-width=".8" opacity=".55"/><circle cx="32" cy="32" r="10" stroke="#00C2FF" stroke-width=".8" opacity=".35"/><path d="M32 4V60M4 32H60M12.2 12.2L51.8 51.8M51.8 12.2L12.2 51.8" stroke="#00C2FF" stroke-width="1"/><circle cx="32" cy="32" r="5.5" fill="#00C2FF"/><circle cx="32" cy="8" r="3.2" fill="#00C2FF"/><circle cx="32" cy="56" r="3.2" fill="#00C2FF"/><circle cx="8" cy="32" r="3.2" fill="#00C2FF"/><circle cx="56" cy="32" r="3.2" fill="#00C2FF"/><circle cx="15" cy="15" r="3.8" fill="#F8FAFC"/><circle cx="49" cy="15" r="3.8" fill="#F8FAFC"/><circle cx="15" cy="49" r="3.8" fill="#F8FAFC"/><circle cx="49" cy="49" r="3.8" fill="#F8FAFC"/></g><g transform="translate(80,12)"><text x="0" y="26" font-family="Arial, sans-serif" font-size="30" letter-spacing="7" fill="#F8FAFC" font-weight="700">AERIS</text><line x1="0" y1="42" x2="30" y2="42" stroke="#00C2FF" stroke-width="2"/><text x="40" y="47" font-family="Arial, sans-serif" font-size="11" letter-spacing="6" fill="#00C2FF" font-weight="600">INTELLIGENCE</text><line x1="166" y1="42" x2="196" y2="42" stroke="#00C2FF" stroke-width="2"/></g></svg>