<svg width="220" height="64" viewBox="0 0 220 64" fill="none" xmlns="http://www.w3.org/2000/svg">
<g transform="translate(0,2)">
<circle cx="30" cy="30" r="26" stroke="#F8FAFC" stroke-width="1.4" opacity=".85"/>
<circle cx="30" cy="30" r="18" stroke="#00C2FF" stroke-width=".8" opacity=".55"/>
<circle cx="30" cy="30" r="9" stroke="#00C2FF" stroke-width=".8" opacity=".35"/>
<line x1="30" y1="4" x2="30" y2="56" stroke="#00C2FF" stroke-width="1"/>
<line x1="4" y1="30" x2="56" y2="30" stroke="#00C2FF" stroke-width="1"/>
<line x1="12" y1="12" x2="48" y2="48" stroke="#F8FAFC" stroke-width=".9" opacity=".8"/>
<line x1="48" y1="12" x2="12" y2="48" stroke="#F8FAFC" stroke-width=".9" opacity=".8"/>
<circle cx="30" cy="30" r="5.2" fill="#00C2FF"/>
<circle cx="30" cy="8" r="3" fill="#00C2FF"/><circle cx="30" cy="52" r="3" fill="#00C2FF"/>
<circle cx="8" cy="30" r="3" fill="#00C2FF"/><circle cx="52" cy="30" r="3" fill="#00C2FF"/>
<circle cx="14" cy="14" r="3.6" fill="#F8FAFC"/><circle cx="46" cy="14" r="3.6" fill="#F8FAFC"/>
<circle cx="14" cy="46" r="3.6" fill="#F8FAFC"/><circle cx="46" cy="46" r="3.6" fill="#F8FAFC"/>
</g>
<g transform="translate(72,10)">
<text x="0" y="24" font-family="Space Grotesk, Inter, Arial, sans-serif" font-size="28" letter-spacing="7" fill="#F8FAFC" font-weight="600">AERIS</text>
<line x1="0" y1="38" x2="28" y2="38" stroke="#00C2FF" stroke-width="2"/>
<text x="38" y="43" font-family="Inter, Arial, sans-serif" font-size="11" letter-spacing="6" fill="#00C2FF">INTELLIGENCE</text>
<line x1="146" y1="38" x2="174" y2="38" stroke="#00C2FF" stroke-width="2"/>
</g>
</svg>